<?xml version="1.0" standalone="no"?>
<!DOCTYPE svg PUBLIC "-//W3C//DTD SVG 20010904//EN"
 "http://www.w3.org/TR/2001/REC-SVG-20010904/DTD/svg10.dtd">
<svg version="1.0" xmlns="http://www.w3.org/2000/svg"
 width="1280.000000pt" height="1280.000000pt" viewBox="0 0 1280.000000 1280.000000"
 preserveAspectRatio="xMidYMid meet">
<metadata>
Created by potrace 1.14, written by Peter Selinger 2001-2017
</metadata>
<g transform="translate(0.000000,1280.000000) scale(0.100000,-0.100000)"
fill="#000000" stroke="none">
<path d="M6333 12505 c3 -6 -1 -21 -10 -35 -8 -14 -12 -17 -9 -7 3 9 3 17 -1
17 -3 0 -12 -8 -20 -17 -8 -10 -12 -13 -9 -6 4 7 -1 11 -13 10 -15 -1 -17 -5
-10 -13 8 -9 5 -11 -12 -7 -15 4 -20 3 -15 -5 5 -8 0 -12 -13 -12 -11 0 -23
-5 -27 -12 -4 -6 -3 -8 3 -5 5 3 10 0 10 -8 0 -11 -5 -12 -21 -3 -19 10 -19 9
-8 -4 10 -13 10 -18 1 -24 -8 -4 -9 -3 -5 4 9 15 -14 15 -34 1 -13 -9 -13 -10
2 -6 9 3 19 0 21 -8 4 -9 -2 -12 -19 -10 -19 2 -22 0 -13 -11 9 -11 8 -14 -6
-14 -11 0 -15 -5 -12 -14 4 -9 0 -13 -11 -11 -25 4 -34 -5 -21 -21 6 -8 10
-14 8 -15 -34 -7 -38 -6 -32 4 4 7 -4 5 -17 -5 -14 -9 -24 -23 -24 -32 1 -9
-2 -14 -6 -11 -5 3 -16 -5 -24 -17 -9 -12 -16 -18 -16 -12 0 5 5 15 11 21 8 8
7 13 -2 18 -8 6 -10 4 -4 -5 6 -10 4 -12 -9 -7 -13 5 -17 3 -13 -7 3 -8 -1
-17 -9 -20 -20 -8 -24 -7 -21 2 1 4 6 6 10 4 10 -3 -5 25 -28 53 -16 20 -16
20 -5 -2 6 -13 7 -23 1 -23 -5 0 -11 7 -15 15 -3 9 -12 12 -22 8 -11 -4 -15
-2 -11 4 5 7 0 9 -14 6 -20 -5 -20 -6 3 -17 16 -9 26 -9 31 -2 5 7 7 4 3 -7
-3 -11 -2 -16 4 -12 6 3 10 1 10 -6 0 -8 4 -8 15 1 10 9 15 9 15 1 0 -20 -51
-17 -63 4 -4 8 -18 12 -34 9 -47 -9 -53 -19 -44 -79 1 -5 5 -4 10 3 7 11 9 11
14 -1 7 -18 -14 -17 -36 1 -12 10 -17 10 -23 1 -4 -7 -3 -9 4 -5 6 3 16 -3 22
-14 6 -11 8 -20 4 -20 -3 0 4 -8 17 -18 18 -15 20 -20 8 -27 -8 -5 -11 -4 -6
0 4 5 -5 17 -20 27 -16 10 -22 18 -15 18 7 0 10 5 7 11 -9 13 -15 7 -20 -20
-3 -14 1 -21 13 -22 13 0 14 -2 3 -6 -8 -3 -21 3 -29 13 -14 18 -14 18 -8 1 4
-14 0 -20 -15 -24 -21 -6 -21 -7 -3 -20 18 -13 17 -14 -8 -8 -21 6 -28 4 -28
-8 0 -8 -7 -18 -16 -21 -9 -3 -14 -13 -11 -21 4 -9 1 -12 -8 -8 -16 5 -37 -35
-27 -51 3 -5 0 -6 -7 -2 -6 4 -8 13 -5 19 4 7 3 8 -2 4 -9 -8 -10 -12 -13 -39
-1 -9 -4 -9 -12 2 -9 12 -10 11 -6 -6 3 -17 0 -20 -13 -17 -10 3 -21 0 -24 -6
-4 -7 -1 -8 8 -5 9 3 16 1 16 -5 0 -10 -21 -16 -43 -12 -5 1 -6 -3 -2 -9 3 -6
11 -8 16 -5 5 4 9 -1 9 -10 0 -9 4 -14 8 -11 4 2 9 -4 9 -15 1 -11 -1 -17 -5
-15 -4 2 -19 -5 -32 -16 -16 -12 -19 -18 -8 -14 10 3 20 1 23 -4 4 -6 -4 -10
-17 -10 -18 0 -20 -2 -8 -10 14 -9 7 -14 -13 -11 -4 1 -3 -8 3 -20 11 -19 10
-20 -10 -9 -20 11 -21 10 -11 -9 16 -29 14 -33 -11 -20 -21 11 -22 11 -9 -4 9
-12 10 -17 2 -17 -7 0 -9 -5 -5 -12 6 -10 5 -10 -7 -1 -13 10 -19 10 -35 -3
-10 -8 -13 -12 -5 -8 9 4 12 3 7 -4 -3 -6 -18 -9 -31 -6 -14 2 -25 0 -25 -6 0
-6 -5 -8 -10 -5 -6 4 -7 12 -3 18 3 7 -3 4 -14 -6 -11 -9 -23 -14 -27 -10 -10
11 -37 12 -30 2 3 -5 10 -6 16 -3 7 4 8 2 4 -5 -4 -6 -12 -9 -17 -5 -5 3 -16
1 -24 -6 -10 -8 -15 -8 -21 1 -4 7 -3 9 4 5 6 -3 13 -2 16 3 4 5 -1 8 -10 7
-8 -1 -20 -9 -25 -17 -6 -10 -9 -10 -9 -1 0 10 -4 10 -19 0 -11 -7 -17 -16
-14 -22 3 -5 1 -6 -6 -2 -6 4 -9 11 -6 16 10 16 -12 20 -25 5 -7 -8 -16 -13
-20 -10 -5 3 -12 0 -16 -6 -4 -8 -9 -7 -15 2 -7 11 -9 10 -9 -4 0 -10 -5 -15
-10 -12 -6 4 -18 1 -27 -7 -14 -11 -16 -11 -9 2 6 12 4 11 -6 -1 -8 -10 -27
-15 -50 -15 -31 1 -35 -1 -25 -13 10 -12 9 -13 -2 -7 -8 5 -17 3 -22 -5 -7
-12 -9 -11 -9 1 0 13 -1 13 -10 0 -9 -13 -10 -13 -10 0 -1 9 -6 6 -16 -10 -8
-14 -13 -17 -10 -7 5 15 2 16 -14 7 -11 -6 -20 -8 -20 -4 0 3 -6 1 -13 -5 -8
-6 -18 -7 -22 -3 -5 4 -5 -2 -1 -12 5 -15 4 -17 -8 -7 -11 9 -15 9 -18 -1 -4
-10 -9 -10 -23 2 -11 9 -16 10 -11 3 11 -20 -3 -36 -20 -22 -11 9 -15 8 -20
-4 -3 -9 -14 -14 -25 -12 -11 2 -29 -6 -41 -18 -16 -16 -19 -18 -15 -5 4 12 2
15 -9 11 -7 -3 -14 -9 -14 -13 0 -5 -11 -7 -25 -5 -17 1 -25 -3 -25 -14 0 -14
-2 -14 -10 -1 -8 12 -10 12 -11 -5 l0 -20 -9 20 c-8 19 -9 19 -9 1 -1 -13 -6
-17 -20 -13 -13 3 -18 0 -15 -7 3 -8 -4 -12 -18 -11 -22 2 -49 -15 -42 -26 2
-3 -3 -6 -11 -6 -8 0 -12 4 -9 9 10 16 -5 8 -32 -17 -21 -19 -30 -22 -40 -14
-13 11 -19 2 -15 -23 0 -4 -10 -3 -24 2 -17 6 -25 6 -25 -1 0 -6 -6 -7 -12 -3
-10 6 -10 5 -1 -7 11 -13 8 -15 -22 -14 -19 1 -32 -1 -30 -5 6 -10 -46 -34
-73 -33 -15 0 -21 -4 -18 -12 3 -9 -3 -12 -20 -10 -25 2 -33 -9 -11 -19 6 -4
2 -4 -11 -2 -14 3 -25 -1 -28 -9 -3 -8 -13 -11 -21 -8 -12 5 -14 3 -8 -8 7
-11 5 -11 -10 1 -11 9 -16 10 -11 3 4 -8 1 -13 -9 -13 -10 0 -13 -5 -9 -12 5
-8 2 -9 -9 -5 -12 4 -17 1 -17 -11 0 -15 -2 -15 -10 -2 -7 11 -10 11 -10 2 0
-7 -4 -10 -10 -7 -5 3 -10 -2 -10 -11 0 -16 -1 -16 -15 2 -14 18 -14 18 -10
-3 2 -15 0 -20 -10 -17 -7 3 -22 -3 -33 -14 -15 -15 -23 -17 -32 -9 -10 9 -11
9 -7 1 4 -7 -1 -18 -10 -25 -14 -12 -16 -12 -8 1 4 8 -3 3 -18 -12 -15 -16
-32 -25 -40 -22 -8 3 -18 0 -23 -7 -4 -7 -3 -10 4 -5 6 3 14 1 18 -6 4 -7 3
-10 -1 -5 -5 4 -20 0 -34 -10 -19 -12 -23 -13 -14 -2 10 12 8 15 -6 15 -12 0
-17 -5 -13 -15 3 -9 1 -12 -6 -7 -7 4 -12 2 -12 -4 0 -7 -7 -9 -16 -6 -11 4
-18 -1 -21 -14 -3 -11 -9 -17 -14 -15 -4 3 -13 -3 -19 -14 -6 -12 -18 -18 -30
-16 -11 2 -18 0 -15 -6 4 -5 1 -9 -5 -9 -6 0 -8 -5 -4 -12 6 -9 3 -9 -9 0 -14
12 -16 11 -12 -8 4 -19 2 -20 -12 -8 -15 11 -16 11 -9 -7 4 -11 4 -16 0 -13
-10 11 -45 -12 -38 -24 4 -7 3 -8 -4 -4 -7 4 -12 1 -13 -6 0 -7 -4 -4 -9 7 -8
18 -9 18 -9 2 -1 -10 -5 -16 -10 -13 -5 3 -12 -1 -15 -10 -4 -10 -12 -14 -22
-10 -12 5 -15 2 -10 -9 3 -9 2 -13 -3 -10 -5 3 -12 1 -16 -5 -4 -6 -10 -8 -15
-5 -5 3 -16 -8 -25 -25 -11 -22 -21 -30 -32 -26 -11 4 -14 2 -9 -9 7 -18 -5
-20 -23 -2 -10 10 -11 9 -6 -4 4 -10 1 -20 -6 -25 -8 -5 -10 -3 -4 6 5 9 4 11
-3 6 -7 -4 -12 -14 -12 -22 0 -8 -4 -12 -10 -9 -5 3 -10 1 -10 -6 0 -7 -3 -10
-6 -6 -3 3 -19 -9 -36 -26 -17 -18 -24 -23 -17 -13 13 18 13 18 -8 6 -12 -8
-19 -20 -15 -29 4 -10 1 -13 -12 -8 -11 5 -15 3 -10 -5 5 -7 2 -9 -9 -5 -12 4
-14 2 -10 -10 4 -11 2 -14 -5 -9 -7 4 -12 1 -12 -8 0 -9 -6 -16 -14 -16 -8 0
-17 -7 -20 -16 -3 -8 -10 -12 -16 -9 -5 3 -10 1 -10 -5 0 -6 -5 -8 -12 -4 -8
5 -9 2 -5 -10 5 -14 3 -15 -12 -6 -17 8 -19 6 -17 -14 2 -16 -1 -23 -9 -19 -7
2 -16 -1 -21 -8 -5 -8 -3 -10 6 -4 9 5 11 4 6 -3 -4 -7 -16 -12 -27 -12 -10 0
-18 -6 -16 -12 1 -8 -6 -12 -16 -10 -9 2 -17 -1 -16 -5 4 -15 -13 -43 -22 -37
-5 3 -9 1 -9 -5 0 -5 -9 -12 -19 -16 -12 -4 -18 -12 -14 -21 3 -7 -1 -14 -8
-14 -12 0 -79 -69 -79 -82 0 -4 -7 -5 -17 -1 -13 5 -15 2 -11 -15 4 -15 2 -19
-8 -15 -8 3 -14 0 -14 -6 0 -6 -7 -11 -16 -11 -9 0 -12 -5 -8 -12 5 -7 2 -9
-9 -5 -10 4 -14 2 -11 -7 3 -7 -5 -18 -18 -25 -13 -6 -15 -9 -5 -6 10 3 15 1
12 -5 -3 -6 -12 -10 -18 -10 -7 -1 -25 -12 -42 -26 -16 -15 -24 -23 -17 -20
20 12 13 -8 -8 -22 -12 -7 -18 -17 -15 -22 3 -5 0 -7 -8 -4 -8 3 -18 0 -23 -7
-4 -7 -3 -10 4 -5 6 3 14 2 17 -4 4 -6 3 -10 -2 -9 -14 4 -43 -13 -38 -21 6
-10 -24 -22 -37 -14 -5 4 -5 -4 2 -16 7 -12 8 -20 3 -17 -4 3 -14 -1 -21 -9
-7 -8 -10 -14 -6 -14 4 0 -1 -9 -11 -20 -10 -11 -25 -20 -34 -20 -14 0 -14 -2
-1 -10 11 -7 11 -10 2 -10 -7 0 -10 -4 -7 -10 3 -6 -1 -7 -9 -4 -11 4 -16 0
-16 -11 0 -11 -5 -15 -15 -11 -13 4 -14 2 -5 -14 6 -11 7 -20 3 -19 -18 3 -33
-1 -30 -9 1 -4 -11 -20 -26 -35 -18 -16 -26 -31 -21 -38 5 -9 2 -10 -9 -6 -12
4 -14 2 -10 -10 4 -10 2 -14 -4 -10 -12 8 -26 -20 -18 -33 3 -5 0 -12 -6 -16
-8 -5 -9 -3 -4 6 5 9 4 11 -3 6 -7 -4 -12 -14 -12 -22 0 -8 -9 -22 -19 -31
-11 -9 -17 -21 -14 -27 4 -6 -2 -4 -12 4 -11 9 -16 10 -11 3 4 -7 3 -13 -3
-13 -5 0 -8 -8 -6 -19 3 -15 -1 -18 -18 -14 -16 3 -18 2 -9 -5 20 -14 19 -18
-6 -44 -12 -14 -19 -29 -15 -33 5 -5 0 -3 -10 4 -15 12 -17 12 -11 -3 3 -9 1
-16 -5 -16 -6 0 -10 -6 -8 -12 1 -7 -3 -12 -10 -11 -6 1 -14 -4 -17 -13 -4
-10 -2 -13 7 -8 6 3 1 -4 -13 -17 -14 -13 -19 -20 -10 -14 10 7 9 3 -3 -12
-11 -12 -16 -27 -11 -34 4 -7 3 -10 -3 -6 -6 4 -19 -1 -29 -9 -10 -9 -13 -13
-7 -9 9 4 11 1 7 -9 -3 -9 -10 -13 -15 -10 -8 5 -14 -18 -10 -40 1 -5 -4 -4
-11 2 -11 9 -14 6 -16 -13 -5 -53 -6 -64 -11 -60 -2 3 -10 -3 -18 -13 -8 -9
-11 -11 -7 -3 5 10 3 12 -5 7 -9 -6 -9 -11 1 -24 10 -12 10 -14 1 -8 -8 4 -13
1 -13 -9 0 -9 -4 -13 -10 -10 -5 3 -10 -1 -10 -9 0 -8 -10 -22 -22 -31 l-23
-17 25 7 c22 7 21 5 -10 -25 -19 -18 -29 -30 -23 -26 19 10 3 -26 -17 -41 -10
-7 -16 -24 -15 -42 2 -26 0 -29 -14 -18 -10 8 -13 8 -8 0 4 -6 3 -14 -2 -17
-5 -4 -8 -17 -7 -30 2 -17 -1 -23 -10 -19 -9 3 -14 -2 -14 -17 0 -14 -4 -19
-12 -14 -9 5 -9 2 1 -9 12 -15 11 -17 -2 -17 -9 0 -19 -5 -23 -12 -4 -6 -3 -8
4 -4 21 13 5 -27 -19 -46 -13 -11 -18 -17 -11 -13 6 3 12 1 12 -4 0 -6 -8 -11
-17 -11 -14 0 -15 -2 -4 -9 11 -7 10 -10 -4 -18 -12 -7 -14 -13 -6 -17 6 -4
11 -15 11 -24 0 -13 -2 -13 -16 4 -13 16 -15 16 -10 2 3 -11 0 -18 -7 -18 -8
0 -7 -4 3 -10 12 -8 12 -10 -3 -16 -14 -5 -15 -9 -6 -20 10 -12 9 -13 -5 -8
-13 5 -15 0 -12 -25 3 -27 1 -30 -12 -19 -13 11 -15 10 -9 -6 4 -10 2 -25 -4
-32 -6 -8 -8 -21 -5 -30 6 -14 4 -15 -9 -4 -9 7 -15 9 -14 4 1 -5 1 -22 0 -38
-1 -22 -5 -27 -17 -22 -14 5 -15 4 -4 -9 8 -10 9 -15 2 -15 -6 0 -9 -6 -6 -14
3 -7 -1 -20 -9 -27 -8 -8 -12 -25 -10 -38 2 -17 -1 -22 -12 -18 -8 4 -17 1
-21 -5 -4 -6 -3 -8 4 -4 6 3 13 2 17 -4 3 -5 1 -10 -5 -10 -6 0 -8 -4 -5 -10
3 -5 0 -10 -7 -10 -11 0 -10 -2 0 -9 11 -7 10 -9 -3 -14 -13 -6 -14 -11 -4
-28 9 -17 8 -20 -2 -14 -9 6 -11 3 -6 -8 4 -11 -1 -20 -12 -27 -13 -6 -17 -17
-14 -30 3 -12 0 -20 -6 -20 -7 0 -9 -5 -6 -10 4 -6 1 -18 -7 -27 -11 -14 -11
-16 2 -9 12 6 11 4 -1 -6 -9 -7 -14 -19 -12 -25 3 -7 -1 -13 -7 -13 -10 0 -10
-3 -1 -14 9 -10 9 -16 1 -21 -6 -4 -9 -14 -6 -22 3 -8 2 -11 -3 -8 -5 3 -12 1
-16 -5 -3 -5 -1 -10 5 -10 6 0 8 -5 5 -10 -4 -6 -12 -8 -18 -4 -7 3 -3 -2 7
-10 17 -14 17 -16 3 -16 -11 0 -14 -5 -10 -17 4 -11 3 -14 -5 -9 -8 5 -12 -2
-13 -18 -2 -38 -3 -44 -12 -52 -4 -4 -7 -12 -7 -18 0 -6 5 -4 10 4 5 8 10 11
10 5 -1 -5 -6 -18 -14 -27 -7 -9 -12 -33 -11 -53 1 -23 -2 -35 -9 -32 -8 3
-10 -7 -8 -31 3 -22 1 -32 -6 -28 -11 6 -11 -19 0 -30 10 -10 -3 -35 -15 -27
-5 3 -7 2 -4 -3 3 -6 2 -16 -3 -24 -5 -9 -5 -19 2 -27 7 -9 7 -13 0 -13 -7 0
-9 -7 -5 -17 5 -11 3 -14 -6 -8 -10 6 -11 3 -2 -14 7 -11 8 -21 4 -21 -4 0 -7
-18 -7 -39 1 -27 -4 -46 -17 -60 -11 -12 -15 -21 -10 -21 6 0 10 -11 9 -25 -1
-14 -6 -25 -11 -25 -4 0 -6 -4 -2 -9 3 -5 0 -13 -6 -16 -5 -4 -8 -13 -5 -21 3
-7 1 -16 -5 -19 -5 -4 -7 -11 -3 -16 9 -16 10 -80 1 -86 -4 -3 -3 -11 3 -18 8
-10 8 -15 -1 -21 -8 -4 -9 -3 -5 4 4 7 2 12 -3 12 -14 0 -14 -6 0 -32 10 -18
9 -20 -7 -14 -16 5 -16 3 2 -12 20 -17 21 -19 5 -29 -10 -6 -18 -18 -18 -27 0
-8 4 -13 9 -10 4 3 8 0 8 -5 0 -6 -5 -11 -10 -11 -7 0 -7 -6 0 -19 7 -14 7
-22 0 -26 -6 -4 -8 -10 -6 -14 3 -4 1 -13 -4 -21 -5 -8 -5 -21 1 -31 6 -12 4
-19 -7 -23 -11 -4 -13 -10 -6 -19 11 -14 14 -80 3 -73 -5 3 -7 -10 -6 -29 1
-19 -3 -35 -9 -35 -6 0 -3 -5 7 -11 15 -9 16 -13 5 -26 -15 -19 -15 -20 9 -40
10 -8 12 -12 6 -8 -7 3 -13 1 -13 -5 0 -6 -5 -8 -12 -4 -7 5 -8 3 -4 -5 5 -7
15 -10 23 -6 14 5 14 3 2 -11 -18 -22 -21 -138 -3 -123 8 7 10 2 6 -16 -2 -14
-7 -23 -11 -21 -3 3 -7 -18 -7 -45 0 -34 3 -46 11 -39 7 6 11 2 11 -11 0 -13
-5 -18 -16 -14 -12 4 -11 2 2 -8 15 -12 15 -14 0 -25 -9 -7 -11 -10 -5 -7 7 3
13 2 13 -4 0 -5 3 -17 7 -27 5 -13 3 -15 -8 -9 -11 7 -12 6 -3 -6 6 -8 10 -24
8 -37 -3 -17 0 -21 8 -16 9 5 9 2 -1 -9 -11 -14 -11 -17 0 -17 9 0 10 -3 4 -8
-15 -11 -17 -32 -3 -32 9 0 8 -4 -2 -10 -10 -6 -11 -10 -2 -10 6 0 12 -7 12
-16 0 -9 5 -12 12 -8 7 4 8 3 4 -4 -4 -6 -14 -9 -24 -6 -15 5 -15 4 1 -6 11
-7 16 -20 13 -36 -3 -13 0 -24 6 -24 7 0 6 -5 -1 -14 -9 -11 -9 -16 0 -21 8
-6 7 -10 -2 -16 -9 -5 -10 -9 -3 -9 17 0 25 -28 12 -36 -7 -5 -8 -2 -3 7 5 8
4 10 0 6 -18 -16 -13 -36 7 -32 20 4 20 4 2 -16 -16 -18 -16 -19 -1 -13 10 3
17 1 17 -5 0 -6 -4 -11 -10 -11 -5 0 -7 -7 -4 -15 4 -8 11 -12 18 -8 7 4 7 2
-1 -8 -10 -12 -10 -18 -1 -27 9 -9 7 -12 -7 -12 -15 0 -17 -2 -6 -9 7 -5 10
-14 7 -20 -4 -6 0 -14 8 -17 9 -3 16 -10 16 -16 0 -5 -4 -7 -9 -3 -5 3 -13 1
-16 -5 -4 -6 -3 -10 2 -9 20 3 24 -2 13 -17 -11 -12 -11 -15 0 -12 10 2 13
-11 14 -49 0 -28 4 -49 8 -47 5 3 5 11 2 17 -4 7 -3 9 1 4 5 -4 9 -18 10 -31
0 -21 -2 -23 -14 -13 -9 7 -5 -1 7 -17 17 -22 19 -32 11 -42 -9 -11 -8 -14 0
-14 9 0 9 -5 0 -21 -6 -12 -7 -19 -2 -16 5 3 15 -3 22 -15 7 -11 8 -17 2 -13
-15 9 -14 -8 2 -24 10 -11 9 -12 -3 -6 -13 8 -13 7 -1 -9 13 -15 13 -19 0 -27
-12 -7 -12 -9 1 -10 8 -1 19 -1 23 0 5 1 6 -3 2 -9 -3 -6 -12 -7 -18 -3 -8 5
-8 2 0 -9 7 -8 9 -19 5 -24 -4 -4 2 -2 12 6 18 14 18 14 9 -5 -16 -30 -16 -36
4 -52 10 -8 12 -12 6 -8 -8 4 -13 0 -13 -9 0 -9 6 -16 14 -16 9 0 12 -10 10
-30 -2 -17 1 -30 7 -30 6 0 9 -9 6 -20 -3 -13 0 -20 9 -20 12 0 12 -4 4 -20
-8 -16 -7 -22 8 -31 13 -8 17 -19 14 -32 -4 -15 -2 -18 9 -12 12 8 12 6 0 -8
-11 -14 -11 -17 0 -17 11 0 11 -2 -1 -10 -13 -8 -12 -10 4 -10 15 0 16 -3 6
-15 -11 -13 -10 -14 3 -9 12 4 14 1 10 -15 -3 -12 -1 -21 6 -21 6 0 11 -9 11
-20 0 -11 5 -20 10 -20 6 0 10 -5 10 -11 0 -5 -4 -8 -8 -5 -5 3 -9 -1 -9 -9 0
-8 5 -11 10 -8 6 4 8 -2 5 -15 -4 -12 -1 -25 4 -29 7 -3 8 -1 4 5 -4 7 -2 12
3 12 14 0 14 -17 0 -25 -7 -5 -6 -12 4 -23 8 -10 17 -24 21 -32 4 -8 0 -6 -8
4 -9 11 -16 15 -16 8 0 -6 9 -17 21 -25 14 -10 16 -16 8 -19 -10 -3 -7 -10 8
-23 12 -10 19 -24 16 -31 -3 -8 1 -14 8 -15 8 0 5 -4 -6 -9 -11 -5 -14 -9 -7
-9 21 -1 44 -28 29 -34 -9 -4 -9 -6 1 -6 6 -1 12 -10 12 -20 0 -10 7 -21 15
-25 8 -3 12 -12 9 -21 -4 -8 -1 -15 7 -15 7 0 9 -3 6 -7 -4 -3 -2 -12 4 -20 9
-10 8 -13 -1 -13 -8 0 -10 -3 -6 -7 4 -5 13 -8 19 -8 7 0 11 -14 9 -35 -1 -23
1 -30 7 -22 6 11 10 9 14 -7 3 -12 1 -19 -4 -15 -15 9 -10 -1 11 -26 12 -13
18 -30 15 -37 -2 -8 0 -11 5 -8 6 3 10 -3 10 -14 0 -13 7 -21 18 -21 14 0 15
-2 2 -10 -13 -8 -12 -10 4 -10 16 0 17 -2 5 -18 -7 -9 -9 -14 -5 -10 5 4 15 3
23 -3 10 -9 11 -15 1 -26 -9 -11 -8 -13 3 -11 8 2 13 -3 11 -9 -1 -7 3 -13 9
-13 5 0 8 -4 5 -9 -3 -4 2 -17 10 -27 9 -10 12 -13 8 -5 -4 9 -3 12 3 8 6 -4
8 -19 6 -34 -4 -22 -2 -25 6 -13 9 12 11 11 12 -10 1 -14 2 -31 2 -38 -1 -10
2 -10 13 -1 12 10 13 9 8 -6 -5 -12 -4 -16 3 -12 6 4 9 -4 7 -19 -2 -19 1 -24
13 -20 11 4 13 2 9 -9 -3 -10 1 -15 12 -15 15 0 15 -2 2 -10 -13 -8 -13 -10 2
-10 12 0 15 -5 11 -16 -5 -13 -1 -15 18 -9 19 5 21 4 9 -5 -11 -9 -12 -13 -3
-17 9 -3 10 -10 3 -22 -12 -23 -1 -35 17 -19 8 6 13 7 12 2 -5 -26 2 -45 14
-38 7 5 6 0 -3 -11 -8 -10 -10 -16 -3 -12 16 10 42 -30 38 -57 -4 -21 -4 -21
11 -1 16 19 16 19 9 -4 -6 -20 -4 -23 9 -18 10 4 15 3 12 -2 -3 -5 4 -22 16
-37 20 -26 20 -27 3 -14 -20 14 -20 14 -1 -7 10 -13 24 -20 30 -16 6 4 5 -1
-3 -10 -12 -15 -12 -17 4 -11 14 6 16 4 10 -6 -5 -8 1 -20 16 -32 13 -11 18
-17 12 -13 -9 4 -11 1 -7 -10 4 -9 12 -14 19 -11 9 3 12 -3 10 -19 -2 -20 1
-23 16 -15 13 8 17 6 15 -7 -3 -20 15 -43 28 -35 5 3 6 0 3 -6 -10 -15 3 -42
21 -42 8 0 12 -3 9 -7 -4 -3 1 -12 11 -20 11 -10 12 -12 2 -8 -8 4 -4 -3 10
-15 14 -12 20 -19 13 -16 -6 4 -15 1 -19 -5 -4 -7 -3 -9 4 -5 14 8 44 -23 35
-37 -4 -7 0 -6 10 1 14 12 16 11 12 -7 -2 -13 6 -28 25 -43 16 -12 26 -27 22
-33 -3 -5 3 -3 14 5 10 8 16 10 12 6 -4 -5 -3 -15 4 -23 9 -11 7 -12 -8 -7
-18 5 -18 5 -1 -6 21 -13 77 -66 60 -56 -9 5 -11 2 -7 -9 4 -9 13 -14 21 -11
8 3 11 2 8 -3 -3 -6 1 -13 9 -18 8 -4 16 -12 18 -18 2 -5 7 -9 12 -7 5 2 6 -4
3 -12 -4 -10 0 -14 12 -11 14 3 17 -1 14 -16 -4 -15 -2 -18 12 -12 13 4 16 3
11 -5 -4 -8 2 -16 16 -21 13 -6 16 -10 8 -11 -13 0 -13 -2 0 -9 8 -6 18 -7 22
-5 13 8 9 -11 -4 -25 -7 -7 -8 -12 -3 -11 6 2 19 2 30 1 17 -1 18 -3 5 -11
-12 -7 -8 -10 15 -10 21 0 26 -3 16 -9 -9 -6 -10 -11 -2 -15 6 -4 11 -4 12 1
0 4 4 -2 9 -14 5 -13 17 -23 25 -23 9 0 14 -4 11 -8 -2 -4 9 -14 25 -21 17 -8
29 -20 29 -32 0 -10 5 -19 10 -19 6 0 10 -9 10 -20 0 -11 4 -20 10 -20 5 0 7
8 3 18 -5 14 -3 13 10 -3 9 -11 17 -26 17 -33 0 -7 5 -10 10 -7 5 3 10 2 10
-3 0 -5 9 -12 20 -15 11 -3 20 -13 20 -22 0 -14 3 -15 15 -5 12 10 13 8 10
-10 -4 -19 -2 -20 12 -8 12 9 15 9 9 0 -4 -7 -2 -12 4 -12 6 0 8 -5 4 -12 -5
-8 -2 -9 9 -5 9 3 16 3 16 -1 -4 -22 3 -32 20 -32 11 0 23 -4 26 -10 3 -6 -1
-7 -12 -4 -17 5 -17 5 0 -6 9 -6 22 -8 27 -5 6 4 7 -1 3 -11 -4 -12 -3 -15 5
-10 7 4 12 1 12 -8 0 -9 9 -16 20 -16 11 0 20 -5 20 -11 0 -5 6 -7 13 -3 7 5
6 0 -3 -11 -8 -10 -10 -16 -5 -13 16 9 55 -10 55 -27 0 -8 9 -15 21 -15 11 0
17 -4 14 -10 -3 -5 1 -10 10 -10 9 0 13 -4 10 -10 -3 -5 3 -10 15 -10 12 0 18
-4 15 -10 -3 -5 -1 -10 5 -10 6 0 8 -5 4 -12 -6 -10 -3 -9 9 0 13 12 18 10 29
-7 7 -12 17 -21 23 -21 15 0 65 -46 65 -59 0 -7 4 -9 10 -6 5 3 10 1 10 -4 0
-6 5 -11 11 -11 5 0 7 5 4 10 -10 16 1 11 16 -7 12 -15 12 -16 -1 -8 -8 4 -6
-1 5 -12 11 -11 22 -19 24 -17 2 2 10 -1 18 -8 11 -9 12 -7 8 8 -3 10 1 7 8
-9 7 -15 16 -24 20 -21 4 4 7 2 7 -4 0 -7 9 -12 21 -12 11 0 18 -4 15 -9 -3
-5 4 -11 15 -14 12 -3 18 -10 14 -16 -3 -6 0 -9 8 -5 8 3 18 0 22 -5 3 -6 12
-8 18 -4 7 4 7 0 -1 -10 -12 -14 -11 -16 8 -12 19 4 20 2 8 -12 -11 -14 -11
-15 7 -6 15 8 23 8 32 -2 6 -7 9 -17 5 -21 -4 -5 2 -2 12 6 11 8 17 10 14 5
-4 -6 2 -17 14 -24 16 -10 19 -10 12 1 -6 10 -4 10 9 -1 9 -7 14 -17 11 -22
-3 -5 9 -7 26 -5 22 2 28 0 21 -7 -16 -16 39 -48 59 -33 8 5 12 6 7 1 -4 -4 0
-17 9 -27 13 -14 20 -15 31 -6 8 6 13 7 12 2 -3 -19 1 -34 12 -34 5 0 7 6 3
13 -5 8 -3 8 9 -2 9 -7 14 -17 11 -22 -3 -5 3 -6 12 -2 11 4 15 3 11 -4 -5 -7
0 -9 12 -6 11 3 21 -2 24 -11 4 -9 13 -13 22 -10 8 3 15 1 15 -5 0 -6 6 -11
14 -11 8 0 22 -10 30 -22 9 -12 16 -18 16 -12 0 5 -6 16 -13 23 -6 7 7 2 29
-12 23 -14 45 -23 49 -19 5 4 5 -1 1 -12 -5 -14 -3 -17 10 -12 8 3 25 0 37 -6
12 -7 26 -11 30 -10 5 1 6 -2 3 -7 -7 -11 21 -25 62 -29 8 -1 10 -7 6 -14 -5
-9 -2 -9 9 1 11 9 17 10 17 2 0 -6 7 -11 16 -11 8 0 22 -7 30 -15 8 -8 22 -11
31 -8 10 4 14 2 10 -4 -8 -12 20 -26 34 -17 5 3 9 0 9 -7 0 -8 5 -7 17 2 15
12 16 12 10 -5 -6 -16 -5 -17 8 -6 9 7 18 10 22 6 3 -3 0 -6 -7 -6 -15 0 -5
-13 13 -16 26 -5 83 -30 95 -41 7 -7 19 -10 27 -7 8 4 15 1 15 -6 0 -10 3 -10
15 0 10 9 15 9 15 1 0 -6 9 -11 21 -11 13 0 18 -4 13 -13 -5 -7 0 -6 11 3 15
12 17 12 10 1 -6 -11 -4 -13 8 -8 11 4 25 -2 38 -16 17 -17 21 -18 16 -4 -6
16 -5 16 18 1 14 -9 22 -21 18 -27 -3 -6 -1 -7 6 -3 6 4 9 12 6 17 -4 5 -1 9
4 9 6 0 11 -7 11 -15 0 -13 4 -14 21 -4 13 7 19 7 15 1 -3 -6 -2 -13 4 -17 5
-3 10 -1 10 6 0 7 7 4 16 -7 8 -10 12 -12 8 -4 -5 10 1 8 16 -5 14 -12 20 -14
15 -5 -8 13 -7 13 8 1 12 -9 17 -10 17 -2 0 8 4 8 14 -1 8 -7 12 -16 10 -19
-2 -3 3 -6 11 -6 8 0 15 5 15 10 0 5 7 4 15 -3 8 -7 22 -10 30 -6 9 3 14 2 11
-2 -2 -4 -1 -14 5 -22 5 -9 9 -10 9 -4 0 8 11 10 33 5 17 -4 42 -7 55 -6 12 1
22 -3 22 -8 0 -5 7 -6 16 -3 8 3 13 2 10 -3 -3 -5 1 -12 10 -15 8 -3 12 -2 9
4 -7 12 31 8 42 -5 5 -4 2 -5 -6 0 -8 5 -12 4 -8 -1 3 -5 26 -9 50 -9 25 1 44
-2 41 -6 -5 -9 48 -6 62 3 6 4 11 1 11 -7 0 -8 -4 -12 -9 -9 -4 3 -8 1 -8 -5
0 -5 9 -9 19 -8 11 0 17 6 14 12 -4 5 2 3 13 -6 21 -18 48 -14 37 4 -3 7 6 1
21 -13 24 -22 26 -22 21 -5 -7 20 -6 20 9 1 9 -12 16 -15 16 -7 0 9 5 8 16 -3
20 -20 30 -21 14 -1 -16 20 -6 19 14 -1 9 -8 16 -10 16 -4 0 7 6 8 18 2 9 -5
27 -8 40 -6 13 2 21 0 17 -5 -3 -5 -1 -13 5 -16 6 -4 9 -1 8 6 -2 7 8 13 24
14 15 1 27 -1 26 -4 -2 -20 4 -22 17 -5 11 13 14 14 13 4 -2 -10 4 -14 15 -12
11 2 26 -5 34 -15 8 -10 12 -13 9 -6 -10 19 12 25 23 6 6 -10 11 -12 11 -6 0
8 9 11 23 9 12 -2 29 1 37 7 12 9 13 9 3 -3 -19 -21 -16 -32 6 -20 14 7 21 6
24 -3 4 -8 8 -8 14 -2 10 13 36 18 29 6 -3 -5 5 -8 19 -7 14 0 25 6 25 11 0 6
4 4 9 -3 4 -8 12 -14 16 -14 4 0 12 6 16 14 7 10 9 10 9 1 0 -7 7 -13 16 -13
9 0 13 5 9 13 -4 6 -1 5 7 -4 7 -9 19 -14 26 -11 7 2 19 -2 28 -8 12 -11 13
-10 8 5 -6 15 -4 16 16 5 27 -15 72 -21 64 -9 -3 5 7 9 23 9 22 0 25 -2 13
-10 -10 -7 -11 -10 -2 -10 7 0 15 7 18 15 6 14 8 13 19 -1 9 -14 14 -14 20 -4
5 9 4 11 -3 6 -7 -4 -12 -2 -12 3 0 13 2 13 34 1 15 -5 26 -6 26 -1 0 14 30 6
41 -10 7 -11 9 -11 9 4 0 16 2 16 28 1 15 -9 20 -10 10 -2 -14 12 -12 14 22
13 22 0 36 -4 32 -10 -3 -5 5 -1 18 10 13 11 20 14 16 8 -4 -8 -2 -13 6 -13
11 0 11 -2 0 -8 -8 -6 -2 -9 17 -9 24 0 27 3 15 11 -12 9 -10 11 10 11 15 0
22 -4 18 -13 -4 -12 -1 -12 16 -1 11 7 18 17 16 21 -9 15 3 8 17 -9 12 -14 12
-16 0 -8 -10 6 -12 4 -6 -5 6 -10 11 -10 20 3 13 18 30 24 20 7 -3 -6 1 -7 9
-4 9 3 13 11 9 18 -4 6 1 5 11 -3 15 -13 19 -13 27 0 5 8 9 9 9 3 0 -18 158
-10 181 9 12 11 19 13 19 5 0 -9 3 -9 12 0 15 15 31 16 22 0 -5 -7 -3 -8 7 -2
21 13 72 13 88 0 8 -6 12 -6 9 -1 -6 11 10 28 32 33 11 3 11 0 -1 -15 -8 -11
-3 -9 12 5 14 12 29 19 32 15 12 -12 56 -9 61 4 3 7 16 10 31 7 15 -3 24 -1
22 3 -3 4 24 7 59 7 36 -1 67 3 71 9 4 6 1 7 -8 2 -8 -5 -11 -4 -6 1 4 4 31 9
60 10 34 1 52 5 55 15 3 11 1 11 -7 -1 -7 -9 -11 -10 -11 -3 0 19 17 24 30 8
11 -14 15 -14 33 2 12 10 17 12 12 4 -6 -10 -4 -12 6 -5 22 13 43 14 51 1 5
-8 8 -6 8 5 0 12 5 15 17 11 12 -5 14 -3 8 8 -6 11 -5 11 5 2 14 -13 43 -6 34
9 -4 6 4 5 16 -2 21 -11 22 -10 16 6 -4 10 -4 15 0 11 4 -4 13 -2 20 4 7 6 14
6 18 0 3 -5 15 -7 26 -4 11 3 17 10 13 17 -4 7 -2 7 8 -1 12 -10 19 -8 33 9
10 11 21 17 25 12 11 -17 30 -14 41 5 7 14 17 18 35 15 15 -3 25 0 25 7 0 8 4
8 15 -1 12 -10 15 -9 15 4 0 10 5 14 10 11 6 -3 10 -1 10 4 0 6 5 11 11 11 5
0 7 -4 4 -10 -3 -6 1 -7 10 -4 9 4 14 12 12 18 -3 7 9 10 35 9 28 -1 38 3 35
11 -3 7 1 13 9 13 7 0 10 -5 7 -11 -4 -6 4 -2 17 9 13 11 20 14 16 7 -8 -14
10 -17 19 -2 3 6 15 10 26 10 11 0 18 4 14 9 -3 6 3 8 14 6 11 -2 22 3 25 12
5 13 9 13 23 2 14 -12 16 -12 11 2 -5 12 1 15 34 14 29 -1 43 4 54 19 8 12 17
20 19 19 13 -7 25 -2 19 9 -4 6 -3 8 4 4 6 -3 13 -2 17 4 3 5 11 10 16 10 6 0
7 -6 3 -12 -5 -9 -3 -9 9 1 9 7 15 17 12 21 -2 4 7 6 20 4 14 -1 28 3 32 8 4
7 1 8 -7 3 -9 -5 -11 -4 -6 4 6 9 11 9 22 0 9 -7 14 -8 13 -3 -4 21 2 26 16
14 9 -7 18 -10 22 -6 3 3 1 6 -6 6 -7 0 -9 5 -6 10 4 6 11 8 16 5 5 -4 9 -1 9
6 0 7 3 10 6 6 4 -3 13 1 21 9 9 8 22 13 30 9 11 -4 13 -1 9 11 -5 14 -4 15 9
4 12 -10 15 -9 15 5 0 14 3 15 15 5 13 -11 14 -10 9 4 -5 12 0 16 19 16 14 0
28 7 31 16 5 13 9 14 22 3 12 -10 15 -10 12 2 -2 9 5 14 19 13 13 -1 20 3 16
11 -6 16 13 29 22 15 4 -7 13 -4 23 8 9 10 13 12 8 5 -6 -10 -4 -12 8 -7 9 3
16 13 16 22 0 8 3 12 7 9 3 -4 12 1 20 11 8 9 12 12 9 5 -4 -6 -1 -15 5 -19 8
-4 9 -3 5 4 -4 7 -2 12 4 12 6 0 8 5 4 11 -4 7 -1 10 7 7 8 -3 20 2 27 11 8 9
11 10 7 4 -4 -8 -1 -11 9 -7 9 3 12 12 8 22 -5 14 -3 15 10 4 13 -11 19 -8 38
15 12 15 19 22 15 16 -4 -9 -1 -11 9 -7 9 3 13 10 10 15 -3 5 0 9 5 9 6 0 11
8 11 17 0 15 2 14 15 -3 13 -18 14 -18 8 6 -6 22 -5 23 9 12 13 -10 18 -10 24
-1 4 8 3 9 -4 5 -7 -4 -12 -5 -12 -1 0 3 12 10 26 15 14 6 22 14 19 20 -3 6 1
7 10 4 18 -7 47 14 38 29 -3 6 -1 7 6 3 6 -4 8 -12 5 -18 -4 -6 1 -6 14 1 11
6 22 17 26 26 3 8 13 15 21 15 10 0 13 5 9 12 -5 8 -2 9 9 5 11 -4 17 -1 17 9
0 8 5 12 10 9 6 -3 13 1 16 9 3 9 10 16 16 16 5 0 6 -6 2 -12 -3 -7 5 1 20 17
14 17 26 26 26 20 0 -5 8 1 16 15 8 14 13 17 10 7 -3 -11 -2 -15 4 -12 6 3 10
13 10 22 0 13 3 13 15 3 13 -11 14 -10 8 5 -5 14 -3 17 10 12 11 -4 14 -2 10
9 -3 9 2 14 17 14 11 0 18 5 15 10 -3 6 1 10 9 10 8 0 19 8 25 17 5 10 12 17
15 16 15 -7 26 -2 26 12 0 8 5 15 11 15 5 0 7 -5 3 -12 -4 -7 -3 -8 5 -4 6 4
9 11 6 16 -5 8 12 24 25 25 3 0 14 6 25 13 19 12 19 13 -5 7 -15 -3 -9 3 15
14 22 11 36 20 30 21 -5 0 -2 5 8 11 9 5 22 7 27 4 5 -3 7 0 4 8 -3 8 2 17 11
21 10 3 13 11 9 18 -5 8 0 7 11 -2 11 -9 16 -10 11 -3 -4 7 -2 21 4 30 10 16
11 16 6 1 -3 -12 -1 -15 9 -12 8 3 11 12 8 20 -4 10 0 12 11 8 9 -4 16 -1 16
6 0 7 7 10 15 6 13 -4 14 -2 5 14 -9 16 -8 18 6 13 13 -5 15 -3 9 8 -8 12 -6
12 8 0 15 -12 17 -12 11 4 -6 14 -4 16 6 10 10 -6 12 -4 6 10 -5 15 -4 16 9 5
13 -11 14 -10 10 2 -4 10 1 17 15 21 15 4 19 10 14 19 -5 9 -2 8 11 -2 10 -8
16 -10 12 -3 -7 11 24 52 41 54 4 0 9 3 12 6 3 4 -1 3 -7 -1 -7 -4 -13 -2 -13
3 0 6 5 11 11 11 5 0 7 6 3 13 -5 7 0 6 11 -3 17 -14 18 -13 13 8 -4 12 -2 20
2 17 5 -3 14 4 20 15 6 11 16 20 23 20 8 0 7 -4 -3 -11 -13 -9 -13 -10 0 -6 8
2 14 12 14 21 -1 9 4 16 12 16 8 0 14 7 14 16 0 8 5 12 11 9 6 -4 13 2 16 14
3 12 12 21 19 21 8 0 14 5 14 11 0 5 4 7 10 4 6 -3 7 1 4 9 -4 10 -1 16 9 16
8 0 20 7 27 15 11 13 10 14 -4 9 -9 -3 -16 -3 -16 0 0 4 13 12 30 17 16 6 27
15 24 20 -3 5 0 9 6 9 6 0 9 4 6 9 -3 5 10 23 29 40 19 17 36 34 36 38 0 5 3
10 6 13 4 3 3 -1 -1 -7 -4 -7 -2 -13 3 -13 11 0 15 13 12 38 -1 7 4 11 11 10
7 -2 12 5 12 15 -2 15 1 16 14 5 12 -10 14 -10 8 0 -4 7 -2 12 4 12 6 0 8 5 5
10 -3 5 1 10 9 10 9 0 15 3 15 8 -4 21 3 31 16 26 8 -4 15 -1 15 5 0 6 -6 11
-12 11 -9 0 -8 3 2 9 8 6 18 7 22 5 4 -3 5 3 1 12 -4 11 -3 15 5 10 13 -8 35
27 24 39 -4 5 -1 4 7 0 11 -6 13 -4 7 10 -5 14 -4 15 7 7 10 -8 13 -5 15 15 2
29 19 53 36 53 12 0 41 38 41 55 1 17 23 50 32 47 4 -1 9 6 11 18 2 11 8 18
13 15 5 -4 9 1 9 10 0 9 5 13 10 10 6 -4 10 -3 9 2 -4 24 2 35 17 29 14 -5 15
-4 5 8 -10 11 -8 17 10 29 11 9 18 20 15 26 -5 7 -1 8 9 5 9 -4 15 -2 13 4 -2
6 6 18 17 27 11 9 15 14 8 11 -6 -4 -15 -2 -18 4 -4 6 -3 10 2 9 4 -1 14 -1
22 0 11 1 11 4 0 18 -10 12 -11 15 -1 9 15 -9 45 12 36 25 -3 5 -1 9 5 9 6 0
7 7 4 17 -4 9 -2 14 3 10 6 -3 11 4 11 15 1 12 7 26 14 32 9 8 10 7 4 -3 -6
-10 -4 -12 4 -7 9 6 9 11 0 22 -9 11 -8 14 5 14 9 0 15 3 15 8 -3 20 2 32 12
26 7 -4 10 -1 7 7 -3 8 7 22 21 31 14 10 21 18 16 18 -6 0 -15 -3 -21 -7 -5
-5 -1 -1 8 9 13 12 15 18 6 21 -10 4 -10 6 0 6 7 1 10 5 7 11 -4 6 1 7 11 3
14 -5 16 -2 12 15 -4 14 -2 20 5 15 7 -4 8 0 4 11 -6 14 -3 17 10 12 10 -4 14
-4 10 0 -4 4 -1 14 6 22 8 11 8 14 0 9 -6 -4 -15 -3 -18 3 -4 6 -1 9 7 8 7 -2
12 3 10 10 -1 8 2 11 9 6 8 -5 10 -1 7 14 -4 16 -2 19 10 15 9 -4 13 -2 9 4
-4 6 -2 17 5 25 7 7 20 22 28 33 15 20 15 20 -9 0 l-24 -20 16 26 c10 14 14
29 10 33 -4 4 0 4 10 0 16 -6 23 9 18 39 0 4 6 7 14 7 9 0 12 6 8 17 -5 11 -3
14 6 8 11 -6 11 -3 0 16 -12 23 -11 23 6 9 10 -8 16 -10 12 -3 -4 6 -3 15 3
18 6 4 8 16 4 27 -5 16 -3 20 8 15 15 -5 18 19 5 41 -6 8 -3 10 7 6 11 -4 14
0 11 15 -2 12 0 19 6 16 9 -6 13 8 10 34 -2 7 2 10 8 7 5 -4 13 -1 17 5 4 7 3
9 -4 5 -6 -3 -13 -2 -16 3 -3 5 4 11 15 14 12 3 18 10 14 17 -4 6 1 18 11 26
18 15 18 15 -1 10 -19 -6 -19 -5 -3 7 10 8 15 17 11 20 -3 4 -1 7 5 7 6 0 9 7
5 17 -5 12 -3 14 8 8 11 -7 11 -5 -1 10 -8 10 -10 16 -5 13 6 -3 16 0 23 8 7
8 9 14 3 14 -11 0 -9 26 4 37 4 4 5 3 1 -4 -3 -6 -2 -14 3 -17 5 -4 8 5 7 19
-2 13 4 35 13 47 19 28 23 50 8 42 -9 -5 -9 -4 0 6 6 7 9 19 6 28 -4 9 -2 13
4 9 6 -4 14 0 17 9 3 8 2 13 -2 10 -5 -3 -9 1 -9 9 0 8 5 13 10 12 5 -1 12 4
15 12 3 8 0 11 -7 7 -7 -5 -9 -1 -5 8 3 9 10 13 15 10 5 -3 9 9 9 25 0 17 4
31 10 31 5 0 6 8 3 17 -5 12 -2 15 10 10 11 -4 14 -2 10 8 -3 8 -9 12 -14 9
-5 -3 -9 0 -9 5 0 6 5 11 11 11 5 0 7 5 4 10 -3 6 -1 10 6 10 8 0 9 3 0 13 -8
11 -6 20 9 37 11 13 20 32 20 42 0 13 4 17 13 12 7 -5 6 -1 -3 10 -13 16 -12
20 3 31 14 10 15 14 5 18 -11 4 -11 6 0 6 7 1 10 5 7 11 -3 5 -1 18 4 29 8 14
7 21 -2 25 -6 4 -2 4 11 2 18 -4 21 -2 12 9 -12 15 -10 36 5 47 6 5 5 8 -3 8
-7 0 -10 5 -7 10 4 6 11 8 16 5 5 -3 6 1 3 9 -3 9 -11 13 -18 9 -6 -3 -3 3 7
15 11 11 16 26 12 31 -3 6 0 11 7 11 9 0 9 3 -2 10 -13 9 -13 10 0 10 13 0 13
1 0 10 -8 5 -10 10 -5 10 6 0 12 12 13 27 1 15 8 30 15 35 6 4 8 8 3 8 -5 0
-2 8 5 17 10 11 10 14 2 9 -7 -4 -13 -2 -13 3 0 6 5 11 12 11 9 0 9 3 1 11
-13 13 -6 42 8 33 5 -3 9 0 9 5 0 6 -4 11 -10 11 -5 0 -10 5 -10 11 0 5 5 7
11 3 8 -5 10 3 7 25 -2 17 -1 31 4 31 4 0 8 5 8 11 0 5 -5 7 -11 3 -8 -4 -8
-1 -2 12 5 11 8 29 7 42 -1 25 6 28 26 10 12 -11 12 -10 2 4 -13 16 -12 121 1
134 3 3 3 13 0 22 -5 11 -3 13 7 7 10 -6 10 -4 2 11 -8 14 -6 21 6 31 15 11
15 14 3 22 -18 11 -23 51 -6 45 14 -6 16 26 2 44 -6 8 -6 12 2 12 14 0 11 32
-4 42 -6 5 -5 8 2 8 7 0 10 7 6 17 -4 11 -3 14 5 9 9 -5 9 -1 2 18 -8 21 -6
26 6 26 8 0 12 5 9 10 -4 6 -10 8 -14 6 -3 -3 -7 4 -7 14 0 10 5 16 10 13 5
-4 7 1 2 12 -5 15 -4 16 9 5 13 -11 14 -10 10 2 -4 9 -16 20 -27 25 -20 8 -20
10 -4 16 12 5 15 3 10 -6 -5 -9 -4 -9 6 0 12 11 11 16 -6 29 -10 8 -14 13 -8
10 7 -3 17 1 24 9 10 12 8 13 -12 10 -22 -4 -22 -4 -4 10 11 8 15 15 9 15 -6
0 -14 7 -17 16 -6 15 -4 15 11 3 17 -13 17 -13 1 12 -15 23 -15 30 -3 53 8 15
10 24 5 21 -14 -9 -12 9 3 24 10 11 9 12 -1 7 -9 -6 -11 -1 -8 18 3 14 7 30
11 36 3 5 1 10 -4 10 -6 0 -11 5 -11 11 0 5 4 8 9 5 13 -8 8 27 -6 42 -16 17
-6 42 15 35 11 -3 13 -2 6 4 -6 4 -10 16 -8 26 1 9 -2 17 -8 17 -7 0 -6 5 1
14 12 14 5 49 -9 41 -4 -2 -5 7 -2 21 3 16 -1 30 -9 35 -9 5 -10 9 -2 9 12 0
12 17 0 38 -5 6 -5 17 -1 24 9 15 13 88 4 83 -3 -2 -11 5 -18 16 -9 13 -9 19
-1 19 6 0 8 7 5 16 -5 12 -3 14 7 8 7 -5 4 -1 -6 9 -13 12 -15 17 -6 17 11 0
11 2 -1 10 -11 7 -11 10 -2 10 8 0 10 5 6 12 -12 19 -12 48 0 49 6 1 0 5 -14
9 -21 7 -22 8 -5 9 15 1 17 4 7 10 -17 11 -22 44 -8 53 7 5 7 8 -3 8 -11 0
-11 3 0 17 8 9 9 14 3 10 -7 -4 -15 0 -18 9 -3 8 -2 12 4 9 6 -3 10 1 10 10 0
9 -4 13 -10 10 -6 -3 -7 1 -4 10 4 8 1 22 -5 29 -9 11 -9 16 0 22 8 5 9 3 4
-6 -5 -9 -4 -11 4 -6 9 6 9 11 0 22 -6 7 -15 12 -19 9 -4 -2 -5 7 -2 20 2 14
1 33 -3 42 -13 29 -14 43 -3 43 5 0 3 7 -6 15 -8 9 -12 23 -9 32 4 11 3 14 -5
9 -9 -5 -9 -1 -3 17 6 16 6 28 -2 36 -8 8 -7 11 4 11 12 0 12 1 -1 9 -8 6 -18
7 -24 4 -5 -3 -6 -1 -2 6 4 6 12 9 17 6 5 -3 6 1 3 9 -3 9 -9 14 -13 11 -4 -2
-8 2 -8 10 0 8 3 12 7 10 4 -2 7 2 7 10 0 8 -5 11 -10 8 -6 -4 -8 0 -4 10 7
19 -1 49 -12 42 -4 -2 -8 2 -8 10 0 8 3 12 7 10 4 -2 7 2 7 10 0 8 -5 12 -10
8 -5 -3 -7 3 -5 13 2 11 -3 25 -12 32 -13 11 -13 11 3 6 13 -5 16 -2 11 10 -3
9 -10 13 -15 10 -5 -3 -9 -1 -9 5 0 5 6 12 13 14 7 4 6 6 -5 6 -11 1 -15 7
-11 21 3 12 0 20 -7 20 -8 0 -11 9 -8 25 3 14 -1 30 -9 37 -11 9 -11 13 -1 19
10 7 10 9 1 9 -7 0 -13 12 -13 28 0 21 -2 24 -10 12 -8 -11 -10 -8 -7 15 3 20
-3 35 -17 48 -12 10 -16 16 -10 13 7 -3 14 3 17 15 5 17 3 18 -10 7 -14 -11
-15 -10 -9 10 6 17 3 22 -11 22 -15 0 -16 2 -3 10 13 8 12 10 -4 10 -20 0 -20
0 0 15 19 15 19 15 -1 8 -11 -3 -17 -3 -13 2 4 4 2 17 -4 29 -7 11 -11 31 -9
44 1 13 -3 22 -11 22 -10 0 -9 3 2 10 12 8 12 10 -5 10 -17 0 -17 2 -5 10 12
8 12 10 1 10 -9 0 -12 8 -9 24 3 16 1 23 -7 20 -7 -3 -15 2 -19 11 -3 9 -2 13
4 10 6 -3 10 -1 10 4 0 6 -5 11 -12 11 -6 0 -8 3 -5 7 4 3 -2 13 -14 21 -14
10 -17 18 -10 25 7 7 3 20 -12 41 -12 17 -20 31 -19 31 2 0 -2 12 -9 27 -6 15
-15 25 -19 23 -4 -2 -7 2 -7 10 0 8 4 12 9 9 4 -3 8 -1 8 4 0 6 -6 12 -14 15
-8 3 -13 16 -12 31 2 14 0 23 -4 21 -10 -6 -22 24 -14 36 5 8 -10 13 -29 10
-5 -1 -6 3 -2 9 3 6 12 7 18 3 7 -4 6 0 -2 10 -7 9 -18 14 -25 10 -6 -3 -8 -2
-3 2 4 5 -1 18 -10 29 -17 20 -17 20 0 7 15 -12 17 -12 11 3 -3 9 -12 16 -20
16 -8 0 -14 5 -14 11 0 5 5 7 10 4 6 -3 10 -1 10 4 0 10 -14 15 -33 12 -5 -1
-6 3 -2 9 4 6 1 18 -7 27 -9 12 -9 15 -1 9 9 -5 11 -2 7 8 -3 9 -11 13 -17 9
-6 -4 -8 0 -4 10 3 10 2 17 -4 17 -6 0 -7 5 -4 10 3 6 -1 10 -10 10 -9 0 -14
4 -11 9 4 5 2 11 -4 13 -5 1 -10 17 -12 35 -1 17 -5 30 -8 28 -3 -2 -12 5 -19
17 -10 16 -10 19 1 13 7 -3 5 0 -4 8 -10 8 -14 18 -10 22 4 5 -1 5 -10 2 -13
-4 -15 -2 -11 10 4 10 2 14 -4 10 -6 -4 -9 6 -8 23 1 16 -1 28 -4 28 -3 -1
-14 2 -23 6 -13 6 -15 12 -8 26 11 21 2 34 -15 20 -8 -6 -12 -6 -13 3 -3 36
-22 78 -32 72 -4 -3 -14 3 -21 12 -10 12 -10 14 -1 9 6 -4 12 -3 12 2 0 5 -9
12 -20 15 -13 3 -18 11 -15 25 3 15 0 19 -11 15 -8 -3 -14 -2 -13 3 4 22 -2
34 -16 34 -8 0 -15 5 -15 11 0 5 4 7 10 4 6 -3 7 1 4 9 -3 9 -9 14 -12 13 -4
-1 -8 2 -9 7 -1 5 -6 12 -13 16 -6 4 -12 13 -14 21 -4 27 -27 59 -42 59 -8 0
-12 5 -9 10 3 6 1 10 -6 10 -7 0 -10 3 -6 6 7 7 -5 21 -43 48 -20 15 -21 17
-5 12 17 -5 18 -4 5 6 -8 7 -22 22 -30 32 -12 16 -12 18 -1 11 10 -6 12 -4 7
4 -5 7 -15 10 -23 7 -8 -3 -12 -2 -8 3 3 5 -1 12 -7 14 -10 4 -10 6 0 6 10 1
10 4 -2 16 -8 8 -20 15 -26 15 -6 0 -8 5 -5 10 3 6 1 10 -5 10 -6 0 -8 5 -4
12 5 8 2 9 -11 5 -14 -6 -16 -3 -12 12 3 15 0 19 -14 16 -12 -3 -16 1 -12 11
3 8 10 14 16 14 6 0 7 3 4 6 -4 4 -14 1 -24 -7 -11 -9 -14 -10 -9 -1 4 6 3 12
-3 12 -5 0 -13 9 -16 20 -3 11 -13 20 -21 20 -12 0 -12 4 -4 21 11 19 10 20
-10 9 -13 -7 -20 -8 -17 -3 3 5 -8 24 -24 42 -16 19 -29 38 -29 43 0 5 -4 6
-10 3 -6 -3 -10 4 -10 17 0 18 -2 20 -10 8 -7 -11 -10 -11 -10 -2 0 8 -5 10
-12 6 -10 -5 -10 -4 -1 6 8 9 7 17 -5 31 -9 10 -22 19 -29 19 -7 0 -13 7 -13
16 0 9 -5 12 -12 8 -8 -5 -9 -2 -5 9 3 9 1 19 -5 23 -7 4 -8 3 -4 -4 4 -7 2
-12 -3 -12 -10 0 -15 14 -12 33 1 5 -4 5 -10 1 -8 -5 -10 -2 -6 8 4 12 0 15
-18 13 -14 -1 -22 2 -19 6 3 5 -2 12 -10 15 -9 3 -16 13 -16 21 0 8 -4 12 -9
9 -11 -7 -23 22 -15 35 3 5 2 9 -3 8 -24 -4 -35 2 -29 17 5 14 4 15 -9 4 -12
-10 -15 -10 -15 4 0 10 -4 14 -10 11 -6 -3 -10 4 -10 17 0 18 -2 20 -10 8 -8
-13 -10 -13 -10 2 0 9 -9 20 -20 23 -11 4 -18 11 -15 16 4 5 1 9 -5 9 -15 0
-40 25 -41 42 0 7 -4 4 -9 -7 l-9 -20 -1 20 c-2 11 -1 24 0 30 1 5 -2 7 -6 3
-4 -4 -13 0 -21 10 -10 11 -12 12 -8 2 4 -8 -1 -6 -9 4 -9 11 -16 24 -16 29 0
4 -4 6 -8 3 -13 -8 -52 23 -53 42 0 14 -2 13 -9 -3 -6 -15 -9 -16 -9 -4 -1 9
-11 21 -23 28 -23 11 -23 11 2 6 l25 -6 -25 15 c-14 8 -28 12 -32 10 -5 -3 -8
2 -8 11 0 9 -4 13 -10 10 -5 -3 -10 -1 -10 5 0 6 -5 8 -12 4 -9 -5 -8 -2 1 9
12 15 12 17 -4 10 -14 -5 -17 -3 -13 9 4 8 1 15 -8 15 -7 0 -10 -5 -7 -11 3
-6 -10 7 -30 29 -32 36 -35 38 -31 15 4 -23 3 -22 -7 3 -7 18 -16 26 -26 23
-8 -3 -12 -2 -9 3 7 10 -20 34 -41 37 -23 4 -54 36 -49 50 3 8 -1 11 -9 7 -8
-3 -12 -10 -8 -16 3 -6 1 -7 -6 -3 -6 4 -9 12 -6 17 4 5 -2 9 -11 9 -10 0 -29
13 -43 28 -14 15 -20 20 -12 10 8 -10 12 -20 10 -23 -3 -2 -13 9 -24 26 -11
16 -28 32 -38 35 -10 3 -30 18 -44 32 -15 15 -20 18 -12 8 13 -18 13 -18 -8
-6 -12 8 -19 18 -17 22 3 4 -2 8 -10 8 -9 0 -16 5 -16 10 0 6 -9 10 -21 10
-13 0 -18 4 -13 12 5 8 0 9 -14 6 -16 -5 -22 -2 -22 10 0 13 -2 14 -9 4 -6
-10 -10 -9 -14 7 -3 14 -10 19 -21 15 -11 -4 -16 0 -16 12 0 16 -2 17 -10 4
-7 -11 -10 -11 -10 -2 0 7 -4 10 -10 7 -5 -3 -10 2 -10 11 0 14 -3 15 -12 6
-7 -7 -17 -12 -22 -12 -7 0 -6 3 1 8 8 5 7 12 -4 27 -16 20 -16 20 -9 0 6 -18
5 -19 -7 -3 -8 10 -17 15 -20 11 -4 -3 -7 5 -8 18 0 22 -1 23 -9 4 -7 -17 -9
-17 -9 -2 -1 9 -7 16 -13 15 -7 -2 -12 3 -10 11 3 12 0 12 -12 1 -15 -11 -20
-7 -17 12 0 4 -10 3 -22 -1 -18 -7 -24 -6 -24 4 0 8 5 11 10 8 6 -3 7 -1 3 5
-4 6 -14 8 -23 5 -12 -5 -14 -3 -8 8 7 11 5 11 -10 -1 -11 -9 -16 -10 -11 -2
4 7 1 12 -8 12 -9 0 -16 5 -16 10 0 7 -7 7 -20 0 -11 -6 -20 -7 -19 -3 4 23
-3 33 -22 33 -12 0 -28 8 -36 18 -10 11 -12 12 -8 2 4 -9 0 -7 -9 4 -8 10 -19
15 -25 12 -5 -4 -13 -1 -17 5 -4 8 -3 9 4 5 7 -4 12 -2 12 3 0 14 -6 14 -33 0
-12 -7 -19 -8 -15 -4 11 11 -21 38 -37 31 -8 -3 -15 0 -15 6 0 6 -3 9 -6 5 -4
-3 -13 0 -20 8 -8 7 -25 12 -39 11 -13 -2 -22 1 -19 5 5 9 -11 13 -30 10 -5
-1 -4 4 2 12 10 12 8 13 -13 9 -14 -2 -25 0 -25 6 0 6 -12 9 -26 7 -16 -1 -23
2 -21 9 3 7 -4 13 -16 13 -11 1 -23 7 -27 14 -6 8 -9 8 -13 -2 -3 -9 -6 -7 -6
6 -1 17 -3 17 -11 5 -6 -9 -10 -11 -10 -3 0 7 -7 10 -17 6 -12 -5 -14 -3 -8 8
7 11 5 11 -10 -1 -11 -9 -16 -10 -11 -2 6 11 -5 17 -26 13 -5 0 -8 4 -8 10 0
5 -4 7 -10 4 -5 -3 -10 3 -10 14 0 11 -5 23 -12 27 -7 5 -8 3 -3 -6 5 -8 4
-11 -3 -6 -6 4 -8 14 -5 23 4 11 3 14 -5 9 -7 -4 -12 -3 -12 3 0 5 8 12 18 14
16 4 16 5 -1 6 -13 1 -16 7 -13 25 3 18 1 23 -9 19 -11 -3 -13 1 -9 19 3 12 7
35 8 51 3 22 1 25 -10 16 -11 -9 -15 -8 -20 4 -3 9 -3 21 1 26 3 6 0 8 -8 5
-8 -3 -13 -15 -12 -27 1 -13 0 -15 -2 -4 -2 9 -8 15 -13 12 -4 -3 -10 2 -13
10 -4 9 -1 12 8 8 11 -4 14 2 13 20 -1 14 -6 23 -10 21 -5 -3 -5 -10 -2 -16 4
-6 3 -8 -3 -5 -6 4 -9 18 -7 33 1 14 -1 23 -4 19 -4 -4 -7 -12 -7 -17 0 -6 -6
-12 -13 -14 -7 -1 -8 0 -2 3 7 3 5 12 -6 24 -9 10 -20 16 -25 14 -4 -3 -10 -1
-13 4 -9 13 19 7 38 -8 9 -7 16 -9 16 -3 0 5 -7 13 -16 16 -8 3 -12 11 -8 17
4 8 0 9 -15 4 -15 -5 -21 -2 -21 10 0 9 4 13 10 10 6 -3 7 1 4 10 -6 14 -8 14
-19 -1 -11 -16 -12 -16 -18 0 -5 12 -3 15 6 10 8 -5 7 -2 -2 9 -7 9 -10 17 -5
17 5 0 -6 9 -23 20 -18 11 -33 23 -33 26 0 4 6 1 14 -5 12 -10 13 -8 9 8 -3
12 -8 19 -12 17 -3 -2 -11 2 -18 9 -10 11 -10 15 0 19 7 4 2 4 -9 2 -22 -4
-26 8 -10 33 7 11 5 13 -7 8 -9 -3 -21 1 -29 11 -9 11 -9 14 -1 8 8 -4 11 -2
7 7 -2 7 -11 14 -19 15 -8 1 -22 3 -30 4 -8 1 -12 5 -9 10 3 5 11 5 17 1 7 -4
7 -1 -1 9 -8 9 -20 14 -28 11 -8 -3 -14 1 -14 11 0 9 -4 16 -9 16 -5 0 -12 8
-16 19 -4 12 -13 17 -30 15 -17 -1 -23 2 -18 9 11 17 13 38 3 32 -5 -3 -15 2
-23 10 -9 8 -24 15 -34 15 -15 0 -16 2 -3 11 11 7 7 9 -18 5 -18 -2 -30 0 -26
5 3 5 9 7 14 4 5 -3 12 -1 15 5 4 6 3 10 -2 9 -28 -5 -42 2 -36 19 5 14 3 14
-11 -3 -15 -17 -17 -17 -12 -3 3 11 0 17 -6 15 -7 -1 -12 5 -13 13 0 10 -10
15 -28 14 -18 0 -26 4 -23 12 3 8 -1 11 -9 7 -8 -3 -12 -10 -9 -17 3 -6 -6 1
-20 17 -25 27 -43 37 -31 16 4 -6 -2 -5 -13 2 -12 7 -19 16 -17 19 2 3 -5 6
-15 6 -14 0 -16 -3 -8 -13 8 -10 7 -12 -6 -7 -9 3 -16 11 -16 17 0 6 -7 2 -15
-9 -15 -18 -15 -18 -8 0 4 13 3 17 -5 12 -7 -4 -12 -1 -12 10 0 11 -6 15 -20
11 -13 -3 -20 0 -20 9 0 8 -5 14 -11 14 -5 0 -7 -4 -4 -10 4 -6 -1 -7 -11 -3
-13 5 -15 3 -9 -8 7 -11 6 -12 -7 -2 -8 7 -18 10 -21 6 -4 -3 -7 -2 -7 3 0 6
6 16 13 23 10 10 9 11 -5 6 -10 -4 -18 -11 -18 -17 0 -5 -5 -6 -10 -3 -6 4 -8
10 -5 15 3 4 -1 10 -9 13 -9 4 -13 -1 -11 -11 1 -9 0 -11 -2 -4 -3 7 -9 9 -15
6 -5 -4 -5 3 2 16 8 15 8 20 1 16 -6 -4 -11 -3 -11 2 0 5 -7 9 -15 9 -8 0 -12
-4 -9 -9 3 -4 0 -8 -5 -8 -10 0 -15 14 -12 33 0 4 -3 7 -9 7 -5 0 -10 -4 -10
-9 0 -6 -9 -8 -21 -6 -16 3 -19 0 -15 -13 4 -10 -2 -6 -14 8 -15 19 -18 20
-13 6 4 -13 3 -17 -4 -13 -6 4 -14 1 -16 -5 -4 -10 -6 -10 -6 -1 -1 7 -11 18
-23 24 -21 11 -22 11 -9 -5 12 -14 12 -16 -3 -10 -9 3 -16 10 -16 14 0 5 -11
7 -25 5 -14 -1 -28 2 -32 8 -4 6 -1 7 7 2 9 -5 11 -4 6 4 -4 6 -13 8 -19 4
-22 -14 -57 -11 -57 5 0 13 -3 12 -16 -4 -8 -10 -13 -14 -10 -8 3 7 -1 14 -9
17 -9 4 -12 1 -8 -9 3 -7 0 -14 -6 -14 -6 0 -11 5 -11 11 0 5 -10 9 -22 7 -13
-2 -22 2 -21 8 1 6 -4 11 -12 11 -8 0 -12 -4 -9 -9 3 -4 0 -8 -5 -8 -6 0 -11
4 -11 8 0 19 -42 10 -50 -11 -9 -22 -9 -21 -10 3 l-1 25 -10 -23 c-7 -19 -29
-23 -29 -6 0 3 4 2 10 -1 6 -4 7 1 3 11 -5 15 -7 15 -15 0 -5 -9 -6 -21 -3
-26 3 -6 -1 -7 -9 -4 -9 3 -13 11 -9 18 4 6 -2 4 -12 -4 -11 -9 -16 -10 -11
-2 4 6 2 12 -3 12 -6 0 -11 -7 -11 -16 0 -15 -3 -15 -26 1 -15 9 -23 12 -20 6
4 -6 2 -11 -3 -11 -6 0 -11 8 -12 18 0 15 -1 15 -8 -2 -4 -11 -15 -20 -24 -22
-10 -1 -15 2 -12 6 3 5 1 11 -5 15 -5 3 -10 -1 -10 -9 0 -9 -4 -16 -10 -16 -5
0 -7 7 -4 15 4 8 1 15 -4 15 -6 0 -14 -9 -17 -20 -4 -11 -11 -17 -17 -14 -6 4
-6 9 -1 13 11 8 11 27 -1 38 -5 4 -7 4 -3 -2z m322 -15 c3 -6 -1 -7 -9 -4 -18
7 -21 14 -7 14 6 0 13 -4 16 -10z m419 -52 c-3 -4 -9 -8 -15 -8 -5 0 -9 4 -9
8 0 5 7 9 15 9 8 0 12 -4 9 -9z m40 -27 c-10 -10 -20 -14 -22 -10 -2 5 -8 9
-14 9 -6 0 -7 -8 -3 -17 5 -14 3 -15 -6 -6 -6 6 -17 9 -24 7 -7 -3 -15 -1 -19
4 -3 5 0 9 7 10 32 2 80 11 85 16 3 3 8 6 10 6 3 0 -3 -8 -14 -19z m183 -73
c-3 -8 -6 -5 -6 6 -1 11 2 17 5 13 3 -3 4 -12 1 -19z m243 -64 c0 -8 -19 -13
-24 -6 -3 5 1 9 9 9 8 0 15 -2 15 -3z m-1496 -22 c3 -5 -1 -9 -9 -9 -8 0 -12
4 -9 9 3 4 7 8 9 8 2 0 6 -4 9 -8z m-214 -32 c0 -5 -5 -10 -11 -10 -5 0 -7 5
-4 10 3 6 8 10 11 10 2 0 4 -4 4 -10z m-28 -18 c3 -11 0 -19 -7 -19 -10 0 -12
13 -6 35 3 7 9 0 13 -16z m1879 -45 c20 -14 20 -16 3 -8 -12 6 -24 8 -26 5 -3
-2 -11 2 -17 10 -17 20 9 16 40 -7z m-1871 -37 c0 -5 -2 -10 -4 -10 -3 0 -8 5
-11 10 -3 6 -1 10 4 10 6 0 11 -4 11 -10z m2326 -506 c-1 -8 -6 -17 -11 -21
-4 -4 -5 -2 -1 5 4 6 2 12 -3 12 -6 0 -11 4 -11 8 0 5 6 9 14 9 7 0 13 -6 12
-13z m-41 -14 c10 -11 16 -20 13 -20 -3 0 -13 9 -23 20 -10 11 -16 20 -13 20
3 0 13 -9 23 -20z m-2952 -15 c-3 -9 -8 -14 -10 -11 -3 3 -2 9 2 15 9 16 15
13 8 -4z m3000 -60 c-3 -9 -8 -14 -10 -11 -3 3 -2 9 2 15 9 16 15 13 8 -4z
m-4538 -585 c3 -5 1 -10 -4 -10 -6 0 -11 5 -11 10 0 6 2 10 4 10 3 0 8 -4 11
-10z m-324 -223 c-10 -9 -11 -8 -5 6 3 10 9 15 12 12 3 -3 0 -11 -7 -18z
m6287 -42 c-3 -3 -9 2 -12 12 -6 14 -5 15 5 6 7 -7 10 -15 7 -18z m-8388
-3255 c0 -5 -5 -10 -11 -10 -5 0 -7 5 -4 10 3 6 8 10 11 10 2 0 4 -4 4 -10z
m-46 -302 c-3 -4 -9 -8 -15 -8 -5 0 -9 4 -9 8 0 5 7 9 15 9 8 0 12 -4 9 -9z
m-19 -28 c-3 -5 -1 -10 6 -10 7 0 10 -3 6 -6 -9 -9 -28 6 -22 17 4 5 8 9 11 9
3 0 2 -4 -1 -10z m10625 -430 c0 -5 -2 -10 -4 -10 -3 0 -8 5 -11 10 -3 6 -1
10 4 10 6 0 11 -4 11 -10z m-10665 -101 c1 -11 -1 -22 -5 -24 -3 -2 -6 9 -6
25 0 33 9 32 11 -1z m15 -194 c0 -2 -6 -5 -13 -8 -8 -3 -14 1 -14 8 0 7 6 11
14 8 7 -3 13 -6 13 -8z m-15 -145 c1 -10 -2 -17 -6 -14 -4 2 -7 13 -6 24 2 23
10 17 12 -10z m10642 -346 c-3 -3 -12 -4 -19 -1 -8 3 -5 6 6 6 11 1 17 -2 13
-5z m-277 -1238 c0 -3 -4 -8 -10 -11 -5 -3 -10 -1 -10 4 0 6 5 11 10 11 6 0
10 -2 10 -4z m-500 -1050 c0 -3 -4 -8 -10 -11 -5 -3 -10 -1 -10 4 0 6 5 11 10
11 6 0 10 -2 10 -4z m-225 -316 c-3 -5 -12 -10 -18 -10 -7 0 -6 4 3 10 19 12
23 12 15 0z m-8470 -208 c-3 -3 -11 0 -18 7 -9 10 -8 11 6 5 10 -3 15 -9 12
-12z m6159 -1612 c-6 -6 -15 -5 -24 1 -13 9 -12 10 3 5 9 -3 17 0 17 6 0 6 3
8 7 5 4 -4 2 -12 -3 -17z m-1503 -363 c-10 -9 -11 -8 -5 6 3 10 9 15 12 12 3
-3 0 -11 -7 -18z m39 9 c0 -3 -4 -8 -10 -11 -5 -3 -10 -1 -10 4 0 6 5 11 10
11 6 0 10 -2 10 -4z m-710 -22 c0 -8 -19 -13 -24 -6 -3 5 1 9 9 9 8 0 15 -2
15 -3z"/>
<path d="M6416 12487 c3 -10 9 -15 12 -12 3 3 0 11 -7 18 -10 9 -11 8 -5 -6z"/>
<path d="M6824 12492 c4 -3 14 -7 22 -8 9 -1 13 0 10 4 -4 3 -14 7 -22 8 -9 1
-13 0 -10 -4z"/>
<path d="M7229 12393 c-13 -16 -12 -17 4 -4 16 13 21 21 13 21 -2 0 -10 -8
-17 -17z"/>
<path d="M5513 11822 c1 -14 5 -18 11 -12 7 7 6 14 -1 21 -9 9 -12 7 -10 -9z"/>
<path d="M8145 11580 c-3 -6 1 -7 9 -4 18 7 21 14 7 14 -6 0 -13 -4 -16 -10z"/>
<path d="M9430 10790 c0 -5 5 -10 11 -10 5 0 7 5 4 10 -3 6 -8 10 -11 10 -2 0
-4 -4 -4 -10z"/>
<path d="M9500 10746 c0 -2 8 -10 18 -17 15 -13 16 -12 3 4 -13 16 -21 21 -21
13z"/>
<path d="M2660 10220 c-9 -6 -10 -10 -3 -10 6 0 15 5 18 10 8 12 4 12 -15 0z"/>
<path d="M10437 9889 c7 -7 15 -10 18 -7 3 3 -2 9 -12 12 -14 6 -15 5 -6 -5z"/>
<path d="M2316 9844 c-5 -14 -4 -15 9 -4 17 14 19 20 6 20 -5 0 -12 -7 -15
-16z"/>
<path d="M1996 9428 c3 -5 10 -6 15 -3 13 9 11 12 -6 12 -8 0 -12 -4 -9 -9z"/>
<path d="M1560 8669 c0 -5 5 -7 10 -4 6 3 10 8 10 11 0 2 -4 4 -10 4 -5 0 -10
-5 -10 -11z"/>
<path d="M11347 8389 c7 -7 15 -10 18 -7 3 3 -2 9 -12 12 -14 6 -15 5 -6 -5z"/>
<path d="M11420 8186 c0 -2 8 -10 18 -17 15 -13 16 -12 3 4 -13 16 -21 21 -21
13z"/>
<path d="M1127 7275 c-4 -8 -3 -16 1 -19 4 -3 9 4 9 15 2 23 -3 25 -10 4z"/>
<path d="M11685 7121 c-3 -5 -2 -12 3 -15 5 -3 9 1 9 9 0 17 -3 19 -12 6z"/>
<path d="M11735 6560 c3 -5 8 -10 11 -10 2 0 4 5 4 10 0 6 -5 10 -11 10 -5 0
-7 -4 -4 -10z"/>
<path d="M11736 6353 c-6 -14 -5 -15 5 -6 7 7 10 15 7 18 -3 3 -9 -2 -12 -12z"/>
<path d="M11525 4940 c-3 -6 1 -7 9 -4 18 7 21 14 7 14 -6 0 -13 -4 -16 -10z"/>
<path d="M10735 3300 c-3 -5 -1 -10 4 -10 6 0 11 5 11 10 0 6 -2 10 -4 10 -3
0 -8 -4 -11 -10z"/>
<path d="M10665 3210 c-3 -5 -1 -10 4 -10 6 0 11 5 11 10 0 6 -2 10 -4 10 -3
0 -8 -4 -11 -10z"/>
<path d="M10400 2875 c-13 -14 -19 -25 -14 -25 8 1 50 50 41 50 -2 0 -14 -11
-27 -25z"/>
<path d="M2630 2616 c0 -2 8 -10 18 -17 15 -13 16 -12 3 4 -13 16 -21 21 -21
13z"/>
<path d="M3210 2116 c0 -2 8 -10 18 -17 15 -13 16 -12 3 4 -13 16 -21 21 -21
13z"/>
</g>
</svg>
